%TF.GenerationSoftware,KiCad,Pcbnew,10.0.2*%
%TF.CreationDate,2026-05-22T07:55:04-04:00*%
%TF.ProjectId,Sentinel_Passive_Carrier,53656e74-696e-4656-9c5f-506173736976,rev?*%
%TF.SameCoordinates,Original*%
%TF.FileFunction,Copper,L2,Bot*%
%TF.FilePolarity,Positive*%
%FSLAX46Y46*%
G04 Gerber Fmt 4.6, Leading zero omitted, Abs format (unit mm)*
G04 Created by KiCad (PCBNEW 10.0.2) date 2026-05-22 07:55:04*
%MOMM*%
%LPD*%
G01*
G04 APERTURE LIST*
%TA.AperFunction,ComponentPad*%
%ADD10O,2.000000X2.000000*%
%TD*%
%TA.AperFunction,ComponentPad*%
%ADD11R,1.800000X1.800000*%
%TD*%
%TA.AperFunction,ComponentPad*%
%ADD12O,1.800000X1.800000*%
%TD*%
%TA.AperFunction,ComponentPad*%
%ADD13O,2.400000X2.400000*%
%TD*%
%TA.AperFunction,ComponentPad*%
%ADD14C,2.400000*%
%TD*%
%TA.AperFunction,Conductor*%
%ADD15C,0.800000*%
%TD*%
G04 APERTURE END LIST*
D10*
%TO.P,R1,1*%
%TO.N,LED_DATA*%
X24000000Y-40480000D03*
%TO.P,R1,2*%
%TO.N,LED_DATA_IN*%
X31620000Y-40480000D03*
%TD*%
D11*
%TO.P,J4,1*%
%TO.N,3V3*%
X36000000Y-28000000D03*
D12*
%TO.P,J4,2*%
%TO.N,GND*%
X39810000Y-28000000D03*
%TO.P,J4,3*%
%TO.N,MIC_ANALOG*%
X43620000Y-28000000D03*
%TO.P,J4,4*%
%TO.N,MIC_GAIN*%
X47430000Y-28000000D03*
%TO.P,J4,5*%
%TO.N,MIC_AR*%
X51240000Y-28000000D03*
%TD*%
D11*
%TO.P,J1,1*%
%TO.N,3V3*%
X8000000Y-10000000D03*
D12*
%TO.P,J1,2*%
%TO.N,GND*%
X8000000Y-13810000D03*
%TO.P,J1,3*%
%TO.N,5V_LED*%
X8000000Y-17620000D03*
%TO.P,J1,4*%
%TO.N,I2C_SDA*%
X8000000Y-21430000D03*
%TO.P,J1,5*%
%TO.N,I2C_SCL*%
X8000000Y-25240000D03*
%TO.P,J1,6*%
%TO.N,PIR_DATA*%
X8000000Y-29050000D03*
%TO.P,J1,7*%
%TO.N,REED_SIGNAL*%
X8000000Y-32860000D03*
%TO.P,J1,8*%
%TO.N,MIC_ANALOG*%
X8000000Y-36670000D03*
%TO.P,J1,9*%
%TO.N,LED_DATA*%
X8000000Y-40480000D03*
%TD*%
D11*
%TO.P,J5,1*%
%TO.N,REED_SIGNAL*%
X58000000Y-32000000D03*
D12*
%TO.P,J5,2*%
%TO.N,GND*%
X63080000Y-32000000D03*
%TD*%
D11*
%TO.P,J2,1*%
%TO.N,3V3*%
X44000000Y-8000000D03*
D12*
%TO.P,J2,2*%
%TO.N,GND*%
X47810000Y-8000000D03*
%TO.P,J2,3*%
%TO.N,I2C_SDA*%
X51620000Y-8000000D03*
%TO.P,J2,4*%
%TO.N,I2C_SCL*%
X55430000Y-8000000D03*
%TD*%
D13*
%TO.P,J6,1*%
%TO.N,5V_LED*%
X42000000Y-42000000D03*
%TO.P,J6,2*%
%TO.N,LED_DATA_IN*%
X47000000Y-42000000D03*
%TO.P,J6,3*%
%TO.N,GND*%
X52000000Y-42000000D03*
%TD*%
D11*
%TO.P,J3,1*%
%TO.N,3V3*%
X44000000Y-18000000D03*
D12*
%TO.P,J3,2*%
%TO.N,GND*%
X47810000Y-18000000D03*
%TO.P,J3,3*%
%TO.N,PIR_DATA*%
X51620000Y-18000000D03*
%TD*%
D14*
%TO.P,C1,1*%
%TO.N,5V_LED*%
X58000000Y-42000000D03*
%TO.P,C1,2*%
%TO.N,GND*%
X64000000Y-42000000D03*
%TD*%
%TO.N,3V3*%
D15*
X12000000Y-6000000D02*
X44000000Y-6000000D01*
X36000000Y-6000000D02*
X36000000Y-28000000D01*
X44000000Y-6000000D02*
X44000000Y-8000000D01*
X8000000Y-10000000D02*
X12000000Y-10000000D01*
X12000000Y-10000000D02*
X12000000Y-6000000D01*
X44000000Y-6000000D02*
X44000000Y-18000000D01*
%TO.N,GND*%
X47810000Y-20000000D02*
X47810000Y-18000000D01*
X52000000Y-46000000D02*
X52000000Y-42000000D01*
X39810000Y-30000000D02*
X39810000Y-28000000D01*
X64000000Y-46000000D02*
X64000000Y-42000000D01*
X34000000Y-30000000D02*
X39810000Y-30000000D01*
X52000000Y-46000000D02*
X52000000Y-20000000D01*
X63080000Y-45000000D02*
X63080000Y-32000000D01*
X47810000Y-10000000D02*
X47810000Y-8000000D01*
X16000000Y-13810000D02*
X16000000Y-46000000D01*
X52000000Y-20000000D02*
X47810000Y-20000000D01*
X56000000Y-10000000D02*
X47810000Y-10000000D01*
X56000000Y-46000000D02*
X56000000Y-10000000D01*
X16000000Y-46000000D02*
X64000000Y-46000000D01*
X34000000Y-46000000D02*
X34000000Y-30000000D01*
X8000000Y-13810000D02*
X16000000Y-13810000D01*
%TO.N,5V_LED*%
X10000000Y-17620000D02*
X10000000Y-38000000D01*
X10000000Y-38000000D02*
X58000000Y-38000000D01*
X8000000Y-17620000D02*
X10000000Y-17620000D01*
X58000000Y-38000000D02*
X58000000Y-42000000D01*
X42000000Y-38000000D02*
X42000000Y-42000000D01*
%TD*%
M02*
