%TF.GenerationSoftware,KiCad,Pcbnew,10.0.2*%
%TF.CreationDate,2026-05-22T07:55:04-04:00*%
%TF.ProjectId,Sentinel_Passive_Carrier,53656e74-696e-4656-9c5f-506173736976,rev?*%
%TF.SameCoordinates,Original*%
%TF.FileFunction,Legend,Top*%
%TF.FilePolarity,Positive*%
%FSLAX46Y46*%
G04 Gerber Fmt 4.6, Leading zero omitted, Abs format (unit mm)*
G04 Created by KiCad (PCBNEW 10.0.2) date 2026-05-22 07:55:04*
%MOMM*%
%LPD*%
G01*
G04 APERTURE LIST*
%ADD10C,0.150000*%
G04 APERTURE END LIST*
D10*
X56295238Y-39857533D02*
X56904762Y-39857533D01*
X56600000Y-40162295D02*
X56600000Y-39552771D01*
X26771429Y-3990200D02*
X26942858Y-4047342D01*
X26942858Y-4047342D02*
X27228572Y-4047342D01*
X27228572Y-4047342D02*
X27342858Y-3990200D01*
X27342858Y-3990200D02*
X27400000Y-3933057D01*
X27400000Y-3933057D02*
X27457143Y-3818771D01*
X27457143Y-3818771D02*
X27457143Y-3704485D01*
X27457143Y-3704485D02*
X27400000Y-3590200D01*
X27400000Y-3590200D02*
X27342858Y-3533057D01*
X27342858Y-3533057D02*
X27228572Y-3475914D01*
X27228572Y-3475914D02*
X27000000Y-3418771D01*
X27000000Y-3418771D02*
X26885715Y-3361628D01*
X26885715Y-3361628D02*
X26828572Y-3304485D01*
X26828572Y-3304485D02*
X26771429Y-3190200D01*
X26771429Y-3190200D02*
X26771429Y-3075914D01*
X26771429Y-3075914D02*
X26828572Y-2961628D01*
X26828572Y-2961628D02*
X26885715Y-2904485D01*
X26885715Y-2904485D02*
X27000000Y-2847342D01*
X27000000Y-2847342D02*
X27285715Y-2847342D01*
X27285715Y-2847342D02*
X27457143Y-2904485D01*
X28428572Y-3990200D02*
X28314286Y-4047342D01*
X28314286Y-4047342D02*
X28085715Y-4047342D01*
X28085715Y-4047342D02*
X27971429Y-3990200D01*
X27971429Y-3990200D02*
X27914286Y-3875914D01*
X27914286Y-3875914D02*
X27914286Y-3418771D01*
X27914286Y-3418771D02*
X27971429Y-3304485D01*
X27971429Y-3304485D02*
X28085715Y-3247342D01*
X28085715Y-3247342D02*
X28314286Y-3247342D01*
X28314286Y-3247342D02*
X28428572Y-3304485D01*
X28428572Y-3304485D02*
X28485715Y-3418771D01*
X28485715Y-3418771D02*
X28485715Y-3533057D01*
X28485715Y-3533057D02*
X27914286Y-3647342D01*
X29000000Y-3247342D02*
X29000000Y-4047342D01*
X29000000Y-3361628D02*
X29057143Y-3304485D01*
X29057143Y-3304485D02*
X29171428Y-3247342D01*
X29171428Y-3247342D02*
X29342857Y-3247342D01*
X29342857Y-3247342D02*
X29457143Y-3304485D01*
X29457143Y-3304485D02*
X29514286Y-3418771D01*
X29514286Y-3418771D02*
X29514286Y-4047342D01*
X29914285Y-3247342D02*
X30371428Y-3247342D01*
X30085714Y-2847342D02*
X30085714Y-3875914D01*
X30085714Y-3875914D02*
X30142857Y-3990200D01*
X30142857Y-3990200D02*
X30257142Y-4047342D01*
X30257142Y-4047342D02*
X30371428Y-4047342D01*
X30771428Y-4047342D02*
X30771428Y-3247342D01*
X30771428Y-2847342D02*
X30714285Y-2904485D01*
X30714285Y-2904485D02*
X30771428Y-2961628D01*
X30771428Y-2961628D02*
X30828571Y-2904485D01*
X30828571Y-2904485D02*
X30771428Y-2847342D01*
X30771428Y-2847342D02*
X30771428Y-2961628D01*
X31342857Y-3247342D02*
X31342857Y-4047342D01*
X31342857Y-3361628D02*
X31400000Y-3304485D01*
X31400000Y-3304485D02*
X31514285Y-3247342D01*
X31514285Y-3247342D02*
X31685714Y-3247342D01*
X31685714Y-3247342D02*
X31800000Y-3304485D01*
X31800000Y-3304485D02*
X31857143Y-3418771D01*
X31857143Y-3418771D02*
X31857143Y-4047342D01*
X32885714Y-3990200D02*
X32771428Y-4047342D01*
X32771428Y-4047342D02*
X32542857Y-4047342D01*
X32542857Y-4047342D02*
X32428571Y-3990200D01*
X32428571Y-3990200D02*
X32371428Y-3875914D01*
X32371428Y-3875914D02*
X32371428Y-3418771D01*
X32371428Y-3418771D02*
X32428571Y-3304485D01*
X32428571Y-3304485D02*
X32542857Y-3247342D01*
X32542857Y-3247342D02*
X32771428Y-3247342D01*
X32771428Y-3247342D02*
X32885714Y-3304485D01*
X32885714Y-3304485D02*
X32942857Y-3418771D01*
X32942857Y-3418771D02*
X32942857Y-3533057D01*
X32942857Y-3533057D02*
X32371428Y-3647342D01*
X33628570Y-4047342D02*
X33514285Y-3990200D01*
X33514285Y-3990200D02*
X33457142Y-3875914D01*
X33457142Y-3875914D02*
X33457142Y-2847342D01*
X34999999Y-4047342D02*
X34999999Y-2847342D01*
X34999999Y-2847342D02*
X35457142Y-2847342D01*
X35457142Y-2847342D02*
X35571427Y-2904485D01*
X35571427Y-2904485D02*
X35628570Y-2961628D01*
X35628570Y-2961628D02*
X35685713Y-3075914D01*
X35685713Y-3075914D02*
X35685713Y-3247342D01*
X35685713Y-3247342D02*
X35628570Y-3361628D01*
X35628570Y-3361628D02*
X35571427Y-3418771D01*
X35571427Y-3418771D02*
X35457142Y-3475914D01*
X35457142Y-3475914D02*
X34999999Y-3475914D01*
X36714285Y-4047342D02*
X36714285Y-3418771D01*
X36714285Y-3418771D02*
X36657142Y-3304485D01*
X36657142Y-3304485D02*
X36542856Y-3247342D01*
X36542856Y-3247342D02*
X36314285Y-3247342D01*
X36314285Y-3247342D02*
X36199999Y-3304485D01*
X36714285Y-3990200D02*
X36599999Y-4047342D01*
X36599999Y-4047342D02*
X36314285Y-4047342D01*
X36314285Y-4047342D02*
X36199999Y-3990200D01*
X36199999Y-3990200D02*
X36142856Y-3875914D01*
X36142856Y-3875914D02*
X36142856Y-3761628D01*
X36142856Y-3761628D02*
X36199999Y-3647342D01*
X36199999Y-3647342D02*
X36314285Y-3590200D01*
X36314285Y-3590200D02*
X36599999Y-3590200D01*
X36599999Y-3590200D02*
X36714285Y-3533057D01*
X37228570Y-3990200D02*
X37342856Y-4047342D01*
X37342856Y-4047342D02*
X37571427Y-4047342D01*
X37571427Y-4047342D02*
X37685713Y-3990200D01*
X37685713Y-3990200D02*
X37742856Y-3875914D01*
X37742856Y-3875914D02*
X37742856Y-3818771D01*
X37742856Y-3818771D02*
X37685713Y-3704485D01*
X37685713Y-3704485D02*
X37571427Y-3647342D01*
X37571427Y-3647342D02*
X37399999Y-3647342D01*
X37399999Y-3647342D02*
X37285713Y-3590200D01*
X37285713Y-3590200D02*
X37228570Y-3475914D01*
X37228570Y-3475914D02*
X37228570Y-3418771D01*
X37228570Y-3418771D02*
X37285713Y-3304485D01*
X37285713Y-3304485D02*
X37399999Y-3247342D01*
X37399999Y-3247342D02*
X37571427Y-3247342D01*
X37571427Y-3247342D02*
X37685713Y-3304485D01*
X38199999Y-3990200D02*
X38314285Y-4047342D01*
X38314285Y-4047342D02*
X38542856Y-4047342D01*
X38542856Y-4047342D02*
X38657142Y-3990200D01*
X38657142Y-3990200D02*
X38714285Y-3875914D01*
X38714285Y-3875914D02*
X38714285Y-3818771D01*
X38714285Y-3818771D02*
X38657142Y-3704485D01*
X38657142Y-3704485D02*
X38542856Y-3647342D01*
X38542856Y-3647342D02*
X38371428Y-3647342D01*
X38371428Y-3647342D02*
X38257142Y-3590200D01*
X38257142Y-3590200D02*
X38199999Y-3475914D01*
X38199999Y-3475914D02*
X38199999Y-3418771D01*
X38199999Y-3418771D02*
X38257142Y-3304485D01*
X38257142Y-3304485D02*
X38371428Y-3247342D01*
X38371428Y-3247342D02*
X38542856Y-3247342D01*
X38542856Y-3247342D02*
X38657142Y-3304485D01*
X39228571Y-4047342D02*
X39228571Y-3247342D01*
X39228571Y-2847342D02*
X39171428Y-2904485D01*
X39171428Y-2904485D02*
X39228571Y-2961628D01*
X39228571Y-2961628D02*
X39285714Y-2904485D01*
X39285714Y-2904485D02*
X39228571Y-2847342D01*
X39228571Y-2847342D02*
X39228571Y-2961628D01*
X39685714Y-3247342D02*
X39971428Y-4047342D01*
X39971428Y-4047342D02*
X40257143Y-3247342D01*
X41171429Y-3990200D02*
X41057143Y-4047342D01*
X41057143Y-4047342D02*
X40828572Y-4047342D01*
X40828572Y-4047342D02*
X40714286Y-3990200D01*
X40714286Y-3990200D02*
X40657143Y-3875914D01*
X40657143Y-3875914D02*
X40657143Y-3418771D01*
X40657143Y-3418771D02*
X40714286Y-3304485D01*
X40714286Y-3304485D02*
X40828572Y-3247342D01*
X40828572Y-3247342D02*
X41057143Y-3247342D01*
X41057143Y-3247342D02*
X41171429Y-3304485D01*
X41171429Y-3304485D02*
X41228572Y-3418771D01*
X41228572Y-3418771D02*
X41228572Y-3533057D01*
X41228572Y-3533057D02*
X40657143Y-3647342D01*
X43342857Y-3933057D02*
X43285714Y-3990200D01*
X43285714Y-3990200D02*
X43114286Y-4047342D01*
X43114286Y-4047342D02*
X43000000Y-4047342D01*
X43000000Y-4047342D02*
X42828571Y-3990200D01*
X42828571Y-3990200D02*
X42714286Y-3875914D01*
X42714286Y-3875914D02*
X42657143Y-3761628D01*
X42657143Y-3761628D02*
X42600000Y-3533057D01*
X42600000Y-3533057D02*
X42600000Y-3361628D01*
X42600000Y-3361628D02*
X42657143Y-3133057D01*
X42657143Y-3133057D02*
X42714286Y-3018771D01*
X42714286Y-3018771D02*
X42828571Y-2904485D01*
X42828571Y-2904485D02*
X43000000Y-2847342D01*
X43000000Y-2847342D02*
X43114286Y-2847342D01*
X43114286Y-2847342D02*
X43285714Y-2904485D01*
X43285714Y-2904485D02*
X43342857Y-2961628D01*
X44371429Y-4047342D02*
X44371429Y-3418771D01*
X44371429Y-3418771D02*
X44314286Y-3304485D01*
X44314286Y-3304485D02*
X44200000Y-3247342D01*
X44200000Y-3247342D02*
X43971429Y-3247342D01*
X43971429Y-3247342D02*
X43857143Y-3304485D01*
X44371429Y-3990200D02*
X44257143Y-4047342D01*
X44257143Y-4047342D02*
X43971429Y-4047342D01*
X43971429Y-4047342D02*
X43857143Y-3990200D01*
X43857143Y-3990200D02*
X43800000Y-3875914D01*
X43800000Y-3875914D02*
X43800000Y-3761628D01*
X43800000Y-3761628D02*
X43857143Y-3647342D01*
X43857143Y-3647342D02*
X43971429Y-3590200D01*
X43971429Y-3590200D02*
X44257143Y-3590200D01*
X44257143Y-3590200D02*
X44371429Y-3533057D01*
X44942857Y-4047342D02*
X44942857Y-3247342D01*
X44942857Y-3475914D02*
X45000000Y-3361628D01*
X45000000Y-3361628D02*
X45057143Y-3304485D01*
X45057143Y-3304485D02*
X45171428Y-3247342D01*
X45171428Y-3247342D02*
X45285714Y-3247342D01*
X45685714Y-4047342D02*
X45685714Y-3247342D01*
X45685714Y-3475914D02*
X45742857Y-3361628D01*
X45742857Y-3361628D02*
X45800000Y-3304485D01*
X45800000Y-3304485D02*
X45914285Y-3247342D01*
X45914285Y-3247342D02*
X46028571Y-3247342D01*
X46428571Y-4047342D02*
X46428571Y-3247342D01*
X46428571Y-2847342D02*
X46371428Y-2904485D01*
X46371428Y-2904485D02*
X46428571Y-2961628D01*
X46428571Y-2961628D02*
X46485714Y-2904485D01*
X46485714Y-2904485D02*
X46428571Y-2847342D01*
X46428571Y-2847342D02*
X46428571Y-2961628D01*
X47457143Y-3990200D02*
X47342857Y-4047342D01*
X47342857Y-4047342D02*
X47114286Y-4047342D01*
X47114286Y-4047342D02*
X47000000Y-3990200D01*
X47000000Y-3990200D02*
X46942857Y-3875914D01*
X46942857Y-3875914D02*
X46942857Y-3418771D01*
X46942857Y-3418771D02*
X47000000Y-3304485D01*
X47000000Y-3304485D02*
X47114286Y-3247342D01*
X47114286Y-3247342D02*
X47342857Y-3247342D01*
X47342857Y-3247342D02*
X47457143Y-3304485D01*
X47457143Y-3304485D02*
X47514286Y-3418771D01*
X47514286Y-3418771D02*
X47514286Y-3533057D01*
X47514286Y-3533057D02*
X46942857Y-3647342D01*
X48028571Y-4047342D02*
X48028571Y-3247342D01*
X48028571Y-3475914D02*
X48085714Y-3361628D01*
X48085714Y-3361628D02*
X48142857Y-3304485D01*
X48142857Y-3304485D02*
X48257142Y-3247342D01*
X48257142Y-3247342D02*
X48371428Y-3247342D01*
X49571428Y-3247342D02*
X49857142Y-4047342D01*
X49857142Y-4047342D02*
X50142857Y-3247342D01*
X51228571Y-4047342D02*
X50542857Y-4047342D01*
X50885714Y-4047342D02*
X50885714Y-2847342D01*
X50885714Y-2847342D02*
X50771428Y-3018771D01*
X50771428Y-3018771D02*
X50657143Y-3133057D01*
X50657143Y-3133057D02*
X50542857Y-3190200D01*
X27643333Y-38334818D02*
X27310000Y-37858627D01*
X27071905Y-38334818D02*
X27071905Y-37334818D01*
X27071905Y-37334818D02*
X27452857Y-37334818D01*
X27452857Y-37334818D02*
X27548095Y-37382437D01*
X27548095Y-37382437D02*
X27595714Y-37430056D01*
X27595714Y-37430056D02*
X27643333Y-37525294D01*
X27643333Y-37525294D02*
X27643333Y-37668151D01*
X27643333Y-37668151D02*
X27595714Y-37763389D01*
X27595714Y-37763389D02*
X27548095Y-37811008D01*
X27548095Y-37811008D02*
X27452857Y-37858627D01*
X27452857Y-37858627D02*
X27071905Y-37858627D01*
X28595714Y-38334818D02*
X28024286Y-38334818D01*
X28310000Y-38334818D02*
X28310000Y-37334818D01*
X28310000Y-37334818D02*
X28214762Y-37477675D01*
X28214762Y-37477675D02*
X28119524Y-37572913D01*
X28119524Y-37572913D02*
X28024286Y-37620532D01*
X35666666Y-24854819D02*
X35666666Y-25569104D01*
X35666666Y-25569104D02*
X35619047Y-25711961D01*
X35619047Y-25711961D02*
X35523809Y-25807200D01*
X35523809Y-25807200D02*
X35380952Y-25854819D01*
X35380952Y-25854819D02*
X35285714Y-25854819D01*
X36571428Y-25188152D02*
X36571428Y-25854819D01*
X36333333Y-24807200D02*
X36095238Y-25521485D01*
X36095238Y-25521485D02*
X36714285Y-25521485D01*
X7666666Y-6854819D02*
X7666666Y-7569104D01*
X7666666Y-7569104D02*
X7619047Y-7711961D01*
X7619047Y-7711961D02*
X7523809Y-7807200D01*
X7523809Y-7807200D02*
X7380952Y-7854819D01*
X7380952Y-7854819D02*
X7285714Y-7854819D01*
X8666666Y-7854819D02*
X8095238Y-7854819D01*
X8380952Y-7854819D02*
X8380952Y-6854819D01*
X8380952Y-6854819D02*
X8285714Y-6997676D01*
X8285714Y-6997676D02*
X8190476Y-7092914D01*
X8190476Y-7092914D02*
X8095238Y-7140533D01*
X57666666Y-28854819D02*
X57666666Y-29569104D01*
X57666666Y-29569104D02*
X57619047Y-29711961D01*
X57619047Y-29711961D02*
X57523809Y-29807200D01*
X57523809Y-29807200D02*
X57380952Y-29854819D01*
X57380952Y-29854819D02*
X57285714Y-29854819D01*
X58619047Y-28854819D02*
X58142857Y-28854819D01*
X58142857Y-28854819D02*
X58095238Y-29331009D01*
X58095238Y-29331009D02*
X58142857Y-29283390D01*
X58142857Y-29283390D02*
X58238095Y-29235771D01*
X58238095Y-29235771D02*
X58476190Y-29235771D01*
X58476190Y-29235771D02*
X58571428Y-29283390D01*
X58571428Y-29283390D02*
X58619047Y-29331009D01*
X58619047Y-29331009D02*
X58666666Y-29426247D01*
X58666666Y-29426247D02*
X58666666Y-29664342D01*
X58666666Y-29664342D02*
X58619047Y-29759580D01*
X58619047Y-29759580D02*
X58571428Y-29807200D01*
X58571428Y-29807200D02*
X58476190Y-29854819D01*
X58476190Y-29854819D02*
X58238095Y-29854819D01*
X58238095Y-29854819D02*
X58142857Y-29807200D01*
X58142857Y-29807200D02*
X58095238Y-29759580D01*
X43666666Y-4854819D02*
X43666666Y-5569104D01*
X43666666Y-5569104D02*
X43619047Y-5711961D01*
X43619047Y-5711961D02*
X43523809Y-5807200D01*
X43523809Y-5807200D02*
X43380952Y-5854819D01*
X43380952Y-5854819D02*
X43285714Y-5854819D01*
X44095238Y-4950057D02*
X44142857Y-4902438D01*
X44142857Y-4902438D02*
X44238095Y-4854819D01*
X44238095Y-4854819D02*
X44476190Y-4854819D01*
X44476190Y-4854819D02*
X44571428Y-4902438D01*
X44571428Y-4902438D02*
X44619047Y-4950057D01*
X44619047Y-4950057D02*
X44666666Y-5045295D01*
X44666666Y-5045295D02*
X44666666Y-5140533D01*
X44666666Y-5140533D02*
X44619047Y-5283390D01*
X44619047Y-5283390D02*
X44047619Y-5854819D01*
X44047619Y-5854819D02*
X44666666Y-5854819D01*
X46666666Y-38854819D02*
X46666666Y-39569104D01*
X46666666Y-39569104D02*
X46619047Y-39711961D01*
X46619047Y-39711961D02*
X46523809Y-39807200D01*
X46523809Y-39807200D02*
X46380952Y-39854819D01*
X46380952Y-39854819D02*
X46285714Y-39854819D01*
X47571428Y-38854819D02*
X47380952Y-38854819D01*
X47380952Y-38854819D02*
X47285714Y-38902438D01*
X47285714Y-38902438D02*
X47238095Y-38950057D01*
X47238095Y-38950057D02*
X47142857Y-39092914D01*
X47142857Y-39092914D02*
X47095238Y-39283390D01*
X47095238Y-39283390D02*
X47095238Y-39664342D01*
X47095238Y-39664342D02*
X47142857Y-39759580D01*
X47142857Y-39759580D02*
X47190476Y-39807200D01*
X47190476Y-39807200D02*
X47285714Y-39854819D01*
X47285714Y-39854819D02*
X47476190Y-39854819D01*
X47476190Y-39854819D02*
X47571428Y-39807200D01*
X47571428Y-39807200D02*
X47619047Y-39759580D01*
X47619047Y-39759580D02*
X47666666Y-39664342D01*
X47666666Y-39664342D02*
X47666666Y-39426247D01*
X47666666Y-39426247D02*
X47619047Y-39331009D01*
X47619047Y-39331009D02*
X47571428Y-39283390D01*
X47571428Y-39283390D02*
X47476190Y-39235771D01*
X47476190Y-39235771D02*
X47285714Y-39235771D01*
X47285714Y-39235771D02*
X47190476Y-39283390D01*
X47190476Y-39283390D02*
X47142857Y-39331009D01*
X47142857Y-39331009D02*
X47095238Y-39426247D01*
X43666666Y-14854819D02*
X43666666Y-15569104D01*
X43666666Y-15569104D02*
X43619047Y-15711961D01*
X43619047Y-15711961D02*
X43523809Y-15807200D01*
X43523809Y-15807200D02*
X43380952Y-15854819D01*
X43380952Y-15854819D02*
X43285714Y-15854819D01*
X44047619Y-14854819D02*
X44666666Y-14854819D01*
X44666666Y-14854819D02*
X44333333Y-15235771D01*
X44333333Y-15235771D02*
X44476190Y-15235771D01*
X44476190Y-15235771D02*
X44571428Y-15283390D01*
X44571428Y-15283390D02*
X44619047Y-15331009D01*
X44619047Y-15331009D02*
X44666666Y-15426247D01*
X44666666Y-15426247D02*
X44666666Y-15664342D01*
X44666666Y-15664342D02*
X44619047Y-15759580D01*
X44619047Y-15759580D02*
X44571428Y-15807200D01*
X44571428Y-15807200D02*
X44476190Y-15854819D01*
X44476190Y-15854819D02*
X44190476Y-15854819D01*
X44190476Y-15854819D02*
X44095238Y-15807200D01*
X44095238Y-15807200D02*
X44047619Y-15759580D01*
X60833333Y-39759580D02*
X60785714Y-39807200D01*
X60785714Y-39807200D02*
X60642857Y-39854819D01*
X60642857Y-39854819D02*
X60547619Y-39854819D01*
X60547619Y-39854819D02*
X60404762Y-39807200D01*
X60404762Y-39807200D02*
X60309524Y-39711961D01*
X60309524Y-39711961D02*
X60261905Y-39616723D01*
X60261905Y-39616723D02*
X60214286Y-39426247D01*
X60214286Y-39426247D02*
X60214286Y-39283390D01*
X60214286Y-39283390D02*
X60261905Y-39092914D01*
X60261905Y-39092914D02*
X60309524Y-38997676D01*
X60309524Y-38997676D02*
X60404762Y-38902438D01*
X60404762Y-38902438D02*
X60547619Y-38854819D01*
X60547619Y-38854819D02*
X60642857Y-38854819D01*
X60642857Y-38854819D02*
X60785714Y-38902438D01*
X60785714Y-38902438D02*
X60833333Y-38950057D01*
X61785714Y-39854819D02*
X61214286Y-39854819D01*
X61500000Y-39854819D02*
X61500000Y-38854819D01*
X61500000Y-38854819D02*
X61404762Y-38997676D01*
X61404762Y-38997676D02*
X61309524Y-39092914D01*
X61309524Y-39092914D02*
X61214286Y-39140533D01*
%TO.C,R1*%
X25200000Y-39279999D02*
X30420000Y-39279999D01*
X25200000Y-40480000D02*
X30420000Y-40480000D01*
X25200000Y-41680000D02*
X30420000Y-41680000D01*
%TO.C,J4*%
X34400000Y-26400000D02*
X52840000Y-26400000D01*
X34400000Y-29600000D02*
X34400000Y-26400000D01*
X52840000Y-26400000D02*
X52840000Y-29600000D01*
X52840000Y-29600000D02*
X34400000Y-29600000D01*
%TO.C,J1*%
X6400000Y-8400000D02*
X9600000Y-8400000D01*
X6400000Y-42080000D02*
X6400000Y-8400000D01*
X9600000Y-8400000D02*
X9600000Y-42080000D01*
X9600000Y-42080000D02*
X6400000Y-42080000D01*
%TO.C,J5*%
X56400000Y-30400000D02*
X64679999Y-30400000D01*
X56400000Y-33600000D02*
X56400000Y-30400000D01*
X64679999Y-30400000D02*
X64679999Y-33600000D01*
X64679999Y-33600000D02*
X56400000Y-33600000D01*
%TO.C,J2*%
X42400000Y-6400000D02*
X57030000Y-6400000D01*
X42400000Y-9600000D02*
X42400000Y-6400000D01*
X57030000Y-6400000D02*
X57030000Y-9600000D01*
X57030000Y-9600000D02*
X42400000Y-9600000D01*
%TO.C,J6*%
X39500000Y-38000000D02*
X54500000Y-38000000D01*
X39500000Y-46000000D02*
X39500000Y-38000000D01*
X54500000Y-38000000D02*
X54500000Y-46000000D01*
X54500000Y-46000000D02*
X39500000Y-46000000D01*
%TO.C,J3*%
X42400000Y-16399999D02*
X53220000Y-16399999D01*
X42400000Y-19600000D02*
X42400000Y-16399999D01*
X53220000Y-16399999D02*
X53220000Y-19600000D01*
X53220000Y-19600000D02*
X42400000Y-19600000D01*
%TO.C,C1*%
X60000000Y-39000000D02*
X60000000Y-45000000D01*
X62000000Y-39000000D02*
X62000000Y-45000000D01*
%TD*%
M02*
